<svg id="svg-source" height="0" version="1.1" 
  xmlns="http://www.w3.org/2000/svg" style="position:absolute; margin-left: -100%" 
  xmlns:xlink="http://www.w3.org/1999/xlink">


<g id="folders" data-iconmelon="Simple Line Icons:1314132db1f1e61ce7bb803e5d33873d">
    <g>
      <path  d="M26.796,0H5.203v22.234H3.165v8.297c0,0.81,0.659,1.469,1.472,1.469h22.729c0.811,0,1.47-0.659,1.47-1.469
    v-8.297h-2.039V0z M25.582,22.234h-8.975V1.213h8.975V22.234z M6.418,1.213h8.978v21.021H6.418V1.213z M27.623,23.447v7.084
    c0,0.144-0.115,0.255-0.258,0.255H4.637c-0.145,0-0.257-0.111-0.257-0.255v-7.084h0.823h21.593H27.623z"></path>
      <path  d="M12.943,6.512H8.867c-0.333,0-0.607,0.271-0.607,0.607v3.721c0,0.333,0.274,0.605,0.607,0.605h4.076
    c0.333,0,0.604-0.272,0.604-0.605V7.119C13.548,6.783,13.276,6.512,12.943,6.512z M12.337,10.231H9.471V7.725h2.866V10.231z"></path>
      <path  d="M19.057,11.445h4.076c0.332,0,0.607-0.272,0.607-0.605V7.119c0-0.336-0.275-0.607-0.607-0.607h-4.076
    c-0.333,0-0.607,0.271-0.607,0.607v3.721C18.449,11.173,18.724,11.445,19.057,11.445z M19.663,7.725h2.862v2.507h-2.862V7.725z"></path>
    </g>
  </g>


  <g id="tag1" data-iconmelon="Geomicons:b201d7696b634462535a5c80b26a5f95">
    <path  d="M32,5v11c0,0.53-0.21,1.039-0.585,1.414l-14,14C17.024,31.805,16.512,32,16,32s-1.023-0.195-1.414-0.586
  l-14-14c-0.781-0.781-0.781-2.047,0-2.828l14-14C14.961,0.211,15.47,0,16,0h11C29.757,0,32,2.243,32,5z M25,5c0,1.104,0.896,2,2,2
  s2-0.896,2-2s-0.896-2-2-2S25,3.896,25,5z"></path>
  </g>


   <g id="home4" data-iconmelon="Minicons Free Vector Icons Pack:b55c2e3857483d8e0d6a482d9d274689">
    <path  d="M26.197,9.118V1.791h-4.148v4.161L16,1.334L0,13.548l2.515,3.295l1.723-1.314v15.137h23.525V15.529
  l1.721,1.314L32,13.55L26.197,9.118z M25.458,28.361h-5.312v-8.754h-8.293v8.754H6.542V14.063L16,6.841l9.458,7.222V28.361z"></path>
  </g>

  <g id="edit-modify" data-iconmelon="Streamline Icon Set:5541559726ac4fe755565839637c8bcd">
    <g id="Expanded">
      <g>
        <g>
          <path  d="M24.666,32H0V2.667h19.332c0.368,0,0.667,0.299,0.667,0.666C19.999,3.701,19.7,4,19.332,4H1.333v26.666
        h21.999V16c0-0.368,0.299-0.667,0.667-0.667s0.667,0.299,0.667,0.667V32z"></path>
        </g>
        <g>
          <path  d="M14.667,11.333"></path>
        </g>
        <g>
          <path  d="M14.424,18.242c-0.173,0-0.344-0.067-0.472-0.195c-0.203-0.203-0.254-0.513-0.125-0.77l1.885-3.771
        c0.032-0.064,0.074-0.123,0.125-0.174L28.565,0.604C28.961,0.209,29.443,0,29.959,0c0.809,0,1.568,0.522,1.89,1.3
        c0.308,0.743,0.139,1.54-0.454,2.133L18.666,16.16c-0.051,0.051-0.109,0.094-0.173,0.126l-3.771,1.886
        C14.627,18.22,14.526,18.242,14.424,18.242z M16.858,14.198l-0.943,1.886l1.886-0.943L30.452,2.49
        c0.21-0.21,0.266-0.438,0.167-0.681c-0.114-0.271-0.397-0.477-0.66-0.477c-0.157,0-0.309,0.072-0.451,0.214L16.858,14.198z"></path>
        </g>
        <g>
          <path  d="M29.037,5.514c-0.171,0-0.342-0.065-0.472-0.195L26.68,3.433c-0.26-0.261-0.26-0.683,0-0.943
        c0.261-0.26,0.683-0.26,0.943,0l1.885,1.886c0.261,0.261,0.261,0.683,0,0.943C29.378,5.449,29.207,5.514,29.037,5.514z"></path>
        </g>
      </g>
    </g>
  </g>

  <g id="home-house" data-iconmelon="Streamline Icon Set:f159615608b75fd05152d585fc1c8694">
    <g id="Expanded">
      <g>
        <g>
          <path  d="M28,31.129h-9.333v-8.668h-5.333v8.668H4v-14c0-0.369,0.298-0.667,0.667-0.667
        c0.369,0,0.667,0.299,0.667,0.667v12.666H12v-8.666h8v8.666h6.667v-12c0-0.367,0.298-0.666,0.666-0.666
        c0.369,0,0.667,0.299,0.667,0.666V31.129z"></path>
        </g>
        <g>
          <path  d="M31.333,17.129c-0.166,0-0.331-0.062-0.461-0.186L16,2.717L1.127,16.943
        c-0.266,0.254-0.688,0.247-0.943-0.021c-0.254-0.266-0.245-0.688,0.021-0.943L16,0.872l15.793,15.107
        c0.266,0.255,0.275,0.677,0.021,0.943C31.684,17.059,31.509,17.129,31.333,17.129z"></path>
        </g>
        <g>
          <path  d="M26,9.128c-0.368,0-0.667-0.299-0.667-0.667v-4h-4c-0.368,0-0.666-0.299-0.666-0.667
        s0.298-0.667,0.666-0.667h5.334v5.333C26.667,8.829,26.368,9.128,26,9.128z"></path>
        </g>
      </g>
    </g>
  </g>

   <g id="share3" data-iconmelon="Minicons Free Vector Icons Pack:743cb36d53cfb6f8d114272c3ac63614">
    <path  d="M16,0C7.167,0,0,7.167,0,16c0,8.838,7.167,16,16,16c8.838,0,16-7.162,16-16C32,7.167,24.838,0,16,0z
   M17.066,23.467V19.2c-6.399-2.134-8.533,0-10.666,4.267c0-10.667,6.399-12.8,10.666-12.8V6.4l8.533,8.533L17.066,23.467z"></path>
  </g>
  
  <g id="list4" data-iconmelon="Simple Line Icons:7ede6f3b3da91a8110905796ea221987">
    <g>
      <path  d="M2.892,13.107C1.298,13.107,0,14.403,0,15.999c0,1.595,1.298,2.894,2.892,2.894
    c1.597,0,2.893-1.299,2.893-2.894C5.784,14.403,4.488,13.107,2.892,13.107z M2.892,17.703c-0.938,0-1.701-0.765-1.701-1.704
    c0-0.94,0.763-1.703,1.701-1.703c0.94,0,1.704,0.763,1.704,1.703C4.596,16.938,3.832,17.703,2.892,17.703z"></path>
      <path  d="M2.892,1.624C1.298,1.624,0,2.921,0,4.515C0,6.11,1.298,7.409,2.892,7.409c1.597,0,2.893-1.299,2.893-2.895
    C5.784,2.921,4.488,1.624,2.892,1.624z M2.892,6.222c-0.938,0-1.701-0.766-1.701-1.707c0-0.939,0.763-1.699,1.701-1.699
    c0.94,0,1.704,0.76,1.704,1.699C4.596,5.456,3.832,6.222,2.892,6.222z"></path>
      <path  d="M2.892,24.589C1.298,24.589,0,25.886,0,27.484c0,1.594,1.298,2.892,2.892,2.892
    c1.597,0,2.893-1.298,2.893-2.892C5.784,25.886,4.488,24.589,2.892,24.589z M2.892,29.187c-0.938,0-1.701-0.764-1.701-1.702
    c0-0.943,0.763-1.706,1.701-1.706c0.94,0,1.704,0.763,1.704,1.706C4.596,28.423,3.832,29.187,2.892,29.187z"></path>
      <path  d="M31.404,26.889H9.78c-0.329,0-0.594,0.269-0.594,0.596c0,0.326,0.265,0.594,0.594,0.594h21.624
    c0.33,0,0.596-0.268,0.596-0.594C32,27.157,31.734,26.889,31.404,26.889z"></path>
      <path  d="M31.404,15.401H9.78c-0.329,0-0.594,0.27-0.594,0.598c0,0.326,0.265,0.592,0.594,0.592h21.624
    c0.33,0,0.596-0.266,0.596-0.592C32,15.671,31.734,15.401,31.404,15.401z"></path>
      <path  d="M31.404,3.92H9.78c-0.329,0-0.594,0.267-0.594,0.595S9.451,5.109,9.78,5.109h21.624
    c0.33,0,0.596-0.267,0.596-0.595S31.734,3.92,31.404,3.92z"></path>
    </g>
  </g>


   <g id="map5" data-iconmelon="Simple Line Icons:a4b70a6cd279d998b013bcc2f1f3401f">
    <g>
      <path  d="M31.222,0.504l-10.079,3.75l-10.084-3.75c-0.02-0.012-0.042-0.003-0.066-0.007
    c-0.047-0.013-0.088-0.017-0.135-0.017s-0.091,0.004-0.135,0.017c-0.024,0.004-0.047-0.005-0.066,0.007L0.377,4.33
    C0.151,4.411,0,4.63,0,4.871v26.084c0,0.189,0.094,0.364,0.247,0.475c0.1,0.066,0.213,0.104,0.328,0.104
    c0.071,0,0.135-0.013,0.203-0.037l10.079-3.754l10.081,3.754c0.069,0.024,0.139,0.037,0.204,0.037c0.066,0,0.135-0.013,0.201-0.037
    l10.279-3.83C31.852,27.584,32,27.368,32,27.126V1.044c0-0.189-0.091-0.365-0.247-0.473C31.599,0.464,31.4,0.434,31.222,0.504z
     M10.28,26.726l-9.128,3.398V5.271l9.128-3.396V26.726z M20.565,30.124l-9.131-3.398V1.875l9.131,3.396V30.124z M30.848,26.726
    l-9.128,3.398V5.271l9.128-3.396V26.726z"></path>
    </g>
  </g>

   <g id="documents" data-iconmelon="Simple Line Icons:f275a7c9d9ae4c0da81500a0568fab70">
    <g>
      <path  d="M1.267,19.506h29.439c0.003,0,0.015,0,0.026,0c0.346,0,0.621-0.278,0.621-0.62
    c0-0.133-0.039-0.254-0.109-0.356L25.619,0.435C25.539,0.177,25.303,0,25.031,0H6.906C6.632,0,6.393,0.177,6.31,0.438L0.673,18.705
    c-0.056,0.186-0.021,0.392,0.095,0.549C0.886,19.411,1.069,19.506,1.267,19.506z M7.361,1.24H24.57l5.291,17.025H2.105L7.361,1.24z
    "></path>
      <path  d="M30.706,22.431H1.267c-0.343,0-0.617,0.278-0.617,0.619c0,0.343,0.274,0.62,0.617,0.62h29.439
    c0.343,0,0.617-0.277,0.617-0.62C31.323,22.709,31.049,22.431,30.706,22.431z"></path>
      <path  d="M30.706,26.594H1.267c-0.343,0-0.617,0.279-0.617,0.622c0,0.34,0.274,0.619,0.617,0.619h29.439
    c0.343,0,0.617-0.278,0.617-0.619C31.323,26.873,31.049,26.594,30.706,26.594z"></path>
      <path  d="M30.706,30.76H1.267c-0.343,0-0.617,0.278-0.617,0.62C0.649,31.721,0.924,32,1.267,32h29.439
    c0.343,0,0.617-0.279,0.617-0.621C31.323,31.038,31.049,30.76,30.706,30.76z"></path>
      <path  d="M9.592,6.207H22.44c0.34,0,0.62-0.278,0.62-0.619c0-0.342-0.28-0.621-0.62-0.621H9.592
    c-0.346,0-0.62,0.279-0.62,0.621C8.972,5.929,9.246,6.207,9.592,6.207z"></path>
      <path  d="M8.289,10.373h15.383c0.34,0,0.618-0.278,0.618-0.621c0-0.341-0.278-0.62-0.618-0.62H8.289
    c-0.343,0-0.62,0.278-0.62,0.62C7.669,10.095,7.946,10.373,8.289,10.373z"></path>
      <path  d="M24.963,13.312H6.983c-0.346,0-0.623,0.278-0.623,0.621c0,0.341,0.277,0.621,0.623,0.621h17.979
    c0.343,0,0.621-0.279,0.621-0.621C25.584,13.59,25.306,13.312,24.963,13.312z"></path>
    </g>
  </g>


  <g id="edit" data-iconmelon="Dripicons:d3a7cc0e4c9e039ce7c7e74447a382a9">
    <g>
      <path d="M30.152,2.83L27.57,0.248C27.412,0.089,27.197,0,26.972,0l0,0c-0.225,0-0.439,0.089-0.598,0.248l-15.05,15.079
    c-0.082,0.082-0.146,0.179-0.188,0.286l-1.675,4.229c-0.124,0.313-0.05,0.669,0.187,0.908c0.162,0.163,0.378,0.249,0.6,0.249
    c0.103,0,0.208-0.019,0.308-0.058l4.243-1.661c0.108-0.043,0.208-0.107,0.29-0.189L30.152,4.025
    C30.482,3.695,30.482,3.16,30.152,2.83z M14.017,17.769l-2.268,0.888l0.895-2.26L26.973,2.042l1.386,1.386L14.017,17.769z"></path>
      <path d="M23.382,14.959c-0.747,0-1.353,0.606-1.353,1.353v12.982H4.306V4.973h13.592c0.747,0,1.353-0.606,1.353-1.353
    c0-0.747-0.606-1.353-1.353-1.353H2.953c-0.747,0-1.353,0.606-1.353,1.353v27.027C1.601,31.395,2.207,32,2.953,32h20.429
    c0.747,0,1.353-0.605,1.353-1.353V16.312C24.735,15.565,24.129,14.959,23.382,14.959z"></path>
    </g>
  </g>


  <g id="arrow-up3" data-iconmelon="Minicons Free Vector Icons Pack:edc5289eddc1cd74d827125e54ecfa0c">
    <g>
      <path  d="M16,2.286c7.571,0,13.714,6.143,13.714,13.714c0,7.576-6.143,13.714-13.714,13.714
    C8.424,29.714,2.286,23.576,2.286,16C2.286,8.429,8.424,2.286,16,2.286 M16,0C7.179,0,0,7.179,0,16s7.179,16,16,16s16-7.179,16-16
    S24.821,0,16,0L16,0z"></path>
      <polygon  points="22.17,20.571 15.62,12.714 9.071,20.571 6.099,20.571 15.62,9.143 25.143,20.571   "></polygon>
    </g>
  </g>
  <g id="arrow-down3" data-iconmelon="Minicons Free Vector Icons Pack:fde551eab5b1c340a3ae728c41c71b31">
    <g>
      <path  d="M16,2.286c7.576,0,13.714,6.138,13.714,13.714c0,7.571-6.138,13.714-13.714,13.714
    C8.433,29.714,2.286,23.571,2.286,16C2.286,8.424,8.433,2.286,16,2.286 M16,0C7.179,0,0,7.179,0,16s7.179,16,16,16s16-7.179,16-16
    S24.821,0,16,0L16,0z"></path>
      <polygon  points="9.83,11.429 16.38,19.286 22.929,11.429 25.901,11.429 16.38,22.857 6.857,11.429  "></polygon>
    </g>
  </g>
</svg>