<?xml version="1.0" ?><!DOCTYPE svg  PUBLIC '-//W3C//DTD SVG 1.1//EN'  'http://www.w3.org/Graphics/SVG/1.1/DTD/svg11.dtd'><svg enable-background="new 0 0 32 32" height="32px" id="fill_x5F_02" version="1.1" viewBox="0 0 32 32" width="32px" x="0px" xml:space="preserve" xmlns="http://www.w3.org/2000/svg" xmlns:xlink="http://www.w3.org/1999/xlink" y="0px"><path clip-rule="evenodd" d="M25.958,23.997c-0.74,0-1.441-0.074-2.095-0.197  c0.061-0.26,0.101-0.523,0.102-0.793l0.008-1.184c0.625,0.111,1.295,0.176,1.998,0.176c2.604,0,4.812-0.832,5.642-1.99  c0.218,0.311,0.343,0.643,0.343,0.99C31.955,22.655,29.27,23.997,25.958,23.997z M25.958,19.999c-0.785,0-1.53-0.079-2.216-0.216  c-0.098-0.269-0.226-0.53-0.387-0.78c0.245-0.379,0.41-0.782,0.508-1.201C24.521,17.926,25.226,18,25.971,18  c2.604,0,4.812-0.832,5.642-1.991c0.218,0.311,0.343,0.643,0.343,0.991C31.955,18.657,29.27,19.999,25.958,19.999z M25.958,16.001  c-0.7,0-1.362-0.071-1.985-0.181l0.005-0.806c0.001-0.121-0.01-0.24-0.03-0.358c-0.058-0.572-0.26-1.134-0.592-1.651  c0.396-0.612,0.607-1.288,0.609-1.993l0.005-0.827c0.625-0.111,1.287-0.182,1.988-0.182c3.312,0,5.997,1.343,5.997,2.999  C31.955,14.659,29.27,16.001,25.958,16.001z M15.963,31.993c-3.27,0-5.917-1.31-5.984-2.936v-0.133  c0.016-0.328,0.132-0.644,0.342-0.938c0.819,1.168,3.038,2.008,5.655,2.008c2.604,0,4.812-0.832,5.642-1.991  c0.218,0.311,0.343,0.644,0.343,0.991C21.96,30.651,19.274,31.993,15.963,31.993z M9.979,29.118  c-0.004-0.041-0.013-0.081-0.013-0.123c0,0.021,0.012,0.041,0.013,0.062V29.118z M9.979,28.872v0.053  c-0.001,0.024-0.013,0.047-0.013,0.07C9.966,28.953,9.975,28.913,9.979,28.872z M15.963,27.995c-3.27,0-5.917-1.309-5.984-2.936  v-0.133c0.016-0.328,0.132-0.644,0.342-0.938c0.819,1.168,3.038,2.008,5.655,2.008c2.604,0,4.812-0.832,5.642-1.99  c0.218,0.311,0.343,0.643,0.343,0.99C21.96,26.653,19.274,27.995,15.963,27.995z M9.979,25.121  c-0.004-0.042-0.013-0.082-0.013-0.124c0,0.021,0.012,0.041,0.013,0.062V25.121z M9.979,24.874v0.053  c-0.001,0.023-0.013,0.047-0.013,0.07C9.966,24.956,9.975,24.915,9.979,24.874z M15.963,23.997c-3.27,0-5.917-1.31-5.984-2.936  v-0.133c0.016-0.328,0.132-0.644,0.342-0.938c0.819,1.168,3.038,2.008,5.655,2.008c2.604,0,4.812-0.832,5.642-1.99  c0.218,0.311,0.343,0.643,0.343,0.99C21.96,22.655,19.274,23.997,15.963,23.997z M9.979,21.123  c-0.004-0.042-0.013-0.082-0.013-0.124c0,0.021,0.012,0.041,0.013,0.062V21.123z M9.979,20.875v0.053  c-0.001,0.024-0.013,0.047-0.013,0.07C9.966,20.957,9.975,20.917,9.979,20.875z M15.963,19.999c-3.27,0-5.917-1.309-5.984-2.936  V16.93c0.016-0.328,0.132-0.644,0.342-0.938C11.14,17.161,13.358,18,15.976,18c2.604,0,4.812-0.832,5.642-1.991  C21.835,16.32,21.96,16.653,21.96,17C21.96,18.657,19.274,19.999,15.963,19.999z M9.979,17.125C9.975,17.083,9.966,17.042,9.966,17  c0,0.021,0.012,0.041,0.013,0.062V17.125z M9.979,16.877v0.053C9.978,16.955,9.966,16.977,9.966,17  C9.966,16.959,9.975,16.918,9.979,16.877z M15.963,16.001c-3.27,0-5.917-1.31-5.984-2.937v-0.132  c0.016-0.328,0.132-0.644,0.342-0.938c0.819,1.168,3.038,2.008,5.655,2.008c2.604,0,4.812-0.832,5.642-1.991  c0.218,0.311,0.343,0.643,0.343,0.991C21.96,14.659,19.274,16.001,15.963,16.001z M9.979,13.126  c-0.004-0.042-0.013-0.082-0.013-0.124c0,0.021,0.012,0.041,0.013,0.062V13.126z M9.979,12.879v0.054  c-0.001,0.024-0.013,0.046-0.013,0.07C9.966,12.961,9.975,12.92,9.979,12.879z M15.963,12.003c-3.27,0-5.917-1.31-5.984-2.937V8.935  c0.016-0.328,0.132-0.644,0.342-0.938c0.819,1.168,3.038,2.007,5.655,2.007c2.604,0,4.812-0.831,5.642-1.99  c0.218,0.311,0.343,0.643,0.343,0.991C21.96,10.661,19.274,12.003,15.963,12.003z M9.979,9.128C9.975,9.087,9.966,9.046,9.966,9.005  c0,0.021,0.012,0.041,0.013,0.062V9.128z M9.979,8.881v0.054c-0.001,0.024-0.013,0.046-0.013,0.07  C9.966,8.963,9.975,8.922,9.979,8.881z M15.963,8.005c-3.27,0-5.917-1.31-5.984-2.937V4.944c0.067-1.626,2.715-2.936,5.984-2.936  c3.312,0,5.997,1.342,5.997,2.998C21.96,6.663,19.274,8.005,15.963,8.005z M9.979,5.13C9.975,5.089,9.966,5.048,9.966,5.006  c0,0.021,0.012,0.041,0.013,0.062V5.13z M9.979,4.883v0.062C9.978,4.966,9.966,4.985,9.966,5.006  C9.966,4.965,9.975,4.924,9.979,4.883z M8.583,7.008C8.426,7.255,8.301,7.516,8.205,7.785C7.513,7.924,6.76,8.005,5.968,8.005  c-3.27,0-5.917-1.31-5.984-2.937V4.944c0.067-1.626,2.715-2.936,5.984-2.936c1.123,0,2.161,0.164,3.06,0.432  C8.349,3.193,7.973,4.072,7.973,5.006C7.973,5.715,8.185,6.394,8.583,7.008z M-0.017,5.13c-0.004-0.042-0.013-0.082-0.013-0.124  c0,0.021,0.012,0.041,0.013,0.062V5.13z M-0.017,4.883v0.062c-0.001,0.021-0.013,0.041-0.013,0.062  C-0.029,4.965-0.021,4.924-0.017,4.883z M-0.017,8.935c-0.001,0.024-0.013,0.046-0.013,0.07c0-0.042,0.009-0.083,0.013-0.124V8.935z   M0.325,7.997c0.819,1.168,3.038,2.007,5.655,2.007c0.706,0,1.378-0.065,2.007-0.178c0,0.06,0,0.117,0,0.178  c-0.001,0.5-0.002,0.979-0.002,1c0,0.271,0.04,0.537,0.101,0.798c-0.66,0.125-1.369,0.202-2.118,0.202  c-3.27,0-5.917-1.31-5.984-2.937V8.935C-0.001,8.606,0.115,8.291,0.325,7.997z M-0.017,9.128c-0.004-0.042-0.013-0.082-0.013-0.124  c0,0.021,0.012,0.041,0.013,0.062V9.128z M-0.017,12.933c-0.001,0.024-0.013,0.046-0.013,0.07c0-0.042,0.009-0.082,0.013-0.124  V12.933z M0.325,11.995c0.819,1.168,3.038,2.008,5.655,2.008c0.79,0,1.536-0.084,2.227-0.224c-0.091,0.252-0.156,0.513-0.189,0.777  c-0.009,0.056-0.016,0.113-0.021,0.17c0,0.008-0.003,0.042-0.004,0.098c-0.005,0.05-0.008,0.11-0.008,0.178  c0,0.018,0.001,0.388,0.001,0.813c-0.633,0.114-1.307,0.187-2.019,0.187c-3.27,0-5.917-1.31-5.984-2.937v-0.132  C-0.001,12.604,0.115,12.289,0.325,11.995z M-0.017,13.126c-0.004-0.042-0.013-0.082-0.013-0.124c0,0.021,0.012,0.041,0.013,0.062  V13.126z M-0.017,16.93c-0.001,0.024-0.013,0.047-0.013,0.07c0-0.041,0.009-0.082,0.013-0.123V16.93z M0.325,15.993  C1.145,17.161,3.363,18,5.98,18c0.744,0,1.449-0.075,2.106-0.199c0.097,0.416,0.26,0.816,0.501,1.192  c-0.159,0.249-0.285,0.513-0.382,0.784c-0.692,0.141-1.446,0.221-2.238,0.221c-3.27,0-5.917-1.309-5.984-2.936V16.93  C-0.001,16.602,0.115,16.287,0.325,15.993z M-0.017,17.125C-0.021,17.083-0.029,17.042-0.029,17c0,0.021,0.012,0.041,0.013,0.062  V17.125z M-0.017,20.928c-0.001,0.024-0.013,0.047-0.013,0.07c0-0.042,0.009-0.082,0.013-0.123V20.928z M0.325,19.991  c0.819,1.168,3.038,2.008,5.655,2.008c0.706,0,1.378-0.066,2.007-0.178c0,0.059,0,0.116,0,0.178  c-0.001,0.499-0.002,0.979-0.002,0.999c0,0.271,0.04,0.536,0.101,0.798c-0.66,0.125-1.369,0.201-2.118,0.201  c-3.27,0-5.917-1.31-5.984-2.936v-0.133C-0.001,20.6,0.115,20.285,0.325,19.991z M-0.017,21.123  c-0.004-0.042-0.013-0.082-0.013-0.124c0,0.021,0.012,0.041,0.013,0.062V21.123z M-0.017,24.926  c-0.001,0.023-0.013,0.047-0.013,0.07c0-0.041,0.009-0.082,0.013-0.123V24.926z M0.325,23.989c0.819,1.168,3.038,2.008,5.655,2.008  c0.79,0,1.536-0.085,2.226-0.224c-0.09,0.253-0.155,0.513-0.188,0.776c-0.009,0.058-0.016,0.115-0.021,0.174  c0,0.009-0.003,0.041-0.004,0.094c-0.005,0.051-0.008,0.111-0.008,0.179c0,0.018,0.001,0.388,0.001,0.812  c-0.633,0.114-1.307,0.187-2.019,0.187c-3.27,0-5.917-1.309-5.984-2.936v-0.133C-0.001,24.598,0.115,24.283,0.325,23.989z   M-0.017,25.121c-0.004-0.042-0.013-0.082-0.013-0.124c0,0.021,0.012,0.041,0.013,0.062V25.121z M31.612,24.006  c0.218,0.311,0.343,0.643,0.343,0.99c0,1.656-2.686,2.998-5.997,2.998c-0.7,0-1.362-0.07-1.985-0.181l0.005-0.806  c0.001-0.121-0.01-0.24-0.03-0.357c-0.03-0.298-0.103-0.592-0.209-0.879c0.691,0.14,1.439,0.225,2.232,0.225  C28.574,25.997,30.783,25.165,31.612,24.006z" fill="#010101" fill-rule="evenodd"/></svg>