<?xml version="1.0" ?><!DOCTYPE svg  PUBLIC '-//W3C//DTD SVG 1.1//EN'  'http://www.w3.org/Graphics/SVG/1.1/DTD/svg11.dtd'><svg enable-background="new 0 0 512 512" height="512px" id="Lego" version="1.1" viewBox="0 0 512 512" width="512px" x="0px" xml:space="preserve" xmlns="http://www.w3.org/2000/svg" xmlns:xlink="http://www.w3.org/1999/xlink" y="0px"><path clip-rule="evenodd" d="M253.844,271.879L48,239.891V135.867L255.844,15.871  l207.844,119.996v104.023L253.844,271.879L253.844,271.879z M253.844,303.867l209.844-31.973v103.973L255.844,495.879L48,375.867  V271.895L253.844,303.867L253.844,303.867z" fill="#F45949" fill-rule="evenodd"/><polygon clip-rule="evenodd" fill="#761B11" fill-rule="evenodd" points="256,255.875 387.484,219.867 463.688,263.867   255.844,383.879 48,263.867 124.211,219.867 256,255.875 "/><polygon clip-rule="evenodd" fill="#C0392B" fill-rule="evenodd" points="255.695,383.879 255.695,495.793 48,375.867 48,263.953   255.695,383.879 "/><polygon clip-rule="evenodd" fill="#95271B" fill-rule="evenodd" points="256,383.879 463.688,263.953 463.688,375.867 256,495.793   256,383.879 "/><polygon clip-rule="evenodd" fill="#E74C3C" fill-rule="evenodd" points="48,135.867 255.844,15.871 463.688,135.867   255.844,255.875 48,135.867 "/><polygon clip-rule="evenodd" fill="#C0392B" fill-rule="evenodd" points="255.695,255.875 255.695,367.789 48,247.867 48,135.949   255.695,255.875 "/><polygon clip-rule="evenodd" fill="#95271B" fill-rule="evenodd" points="256,255.875 463.688,135.949 463.688,247.867 256,367.789   256,255.875 "/><path d="M255.844,95.867c-22.094,0-39.992-8.957-39.992-19.988c0-11.047,17.898-20.008,39.992-20.008  s40,8.961,40,20.008C295.844,86.91,277.938,95.867,255.844,95.867L255.844,95.867z M255.844,207.867  c-22.094,0-39.992-8.957-39.992-19.988c0-11.047,17.898-20.008,39.992-20.008s40,8.961,40,20.008  C295.844,198.91,277.938,207.867,255.844,207.867L255.844,207.867z M351.844,151.867c-22.094,0-40-8.957-40-19.988  c0-11.047,17.906-20.008,40-20.008s40,8.961,40,20.008C391.844,142.91,373.938,151.867,351.844,151.867L351.844,151.867z   M159.852,151.867c-22.094,0-40-8.957-40-19.988c0-11.047,17.906-20.008,40-20.008s39.992,8.961,39.992,20.008  C199.844,142.91,181.945,151.867,159.852,151.867L159.852,151.867z M255.844,71.871c-22.094,0-39.992-8.957-39.992-20.004  s17.898-19.992,39.992-19.992s40,8.945,40,19.992S277.938,71.871,255.844,71.871L255.844,71.871z M255.844,183.875  c-22.094,0-39.992-8.961-39.992-20.008s17.898-19.992,39.992-19.992s40,8.945,40,19.992S277.938,183.875,255.844,183.875  L255.844,183.875z M351.844,127.871c-22.094,0-40-8.957-40-20.004c0-11.051,17.906-19.992,40-19.992s40,8.941,40,19.992  C391.844,118.914,373.938,127.871,351.844,127.871L351.844,127.871z M159.852,127.871c-22.094,0-40-8.957-40-20.004  c0-11.051,17.906-19.992,40-19.992s39.992,8.941,39.992,19.992C199.844,118.914,181.945,127.871,159.852,127.871L159.852,127.871z   M119.852,131.879v-24.012h79.992v24.012H119.852L119.852,131.879z M215.852,75.879V51.867h79.992v24.012H215.852L215.852,75.879z   M215.852,187.879v-24.012h79.992v24.012H215.852L215.852,187.879z M311.844,131.879v-24.012h80v24.012H311.844L311.844,131.879z" fill="#C0392B"/><path d="M255.844,71.871c-22.094,0-39.992-8.957-39.992-20.004s17.898-19.992,39.992-19.992s40,8.945,40,19.992  S277.938,71.871,255.844,71.871L255.844,71.871z M255.844,183.875c-22.094,0-39.992-8.961-39.992-20.008  s17.898-19.992,39.992-19.992s40,8.945,40,19.992S277.938,183.875,255.844,183.875L255.844,183.875z M351.844,127.871  c-22.094,0-40-8.957-40-20.004c0-11.051,17.906-19.992,40-19.992s40,8.941,40,19.992  C391.844,118.914,373.938,127.871,351.844,127.871L351.844,127.871z M159.852,127.871c-22.094,0-40-8.957-40-20.004  c0-11.051,17.906-19.992,40-19.992s39.992,8.941,39.992,19.992C199.844,118.914,181.945,127.871,159.852,127.871L159.852,127.871z" fill="#F45949"/></svg>